<mxfile host="app.diagrams.net" agent="Mozilla/5.0 (Windows NT 10.0; Win64; x64) AppleWebKit/537.36 (KHTML, like Gecko) Chrome/138.0.0.0 Safari/537.36" version="24.9.1">
  <diagram name="Page-1" id="-X6AORGNo6ToLGzMZI8h">
    <mxGraphModel dx="1232" dy="1131" grid="1" gridSize="10" guides="1" tooltips="1" connect="1" arrows="1" fold="1" page="1" pageScale="1" pageWidth="827" pageHeight="1169" math="0" shadow="0">
      <root>
        <mxCell id="0" />
        <mxCell id="1" parent="0" />
        <mxCell id="FiyNu5t_w4gmNEyw63m8-24" value="Arduino Due board (SAM3X)" style="swimlane;whiteSpace=wrap;html=1;labelBackgroundColor=none;" vertex="1" parent="1">
          <mxGeometry x="350" y="157" width="410" height="347" as="geometry" />
        </mxCell>
        <mxCell id="FiyNu5t_w4gmNEyw63m8-26" value="Firmware" style="swimlane;whiteSpace=wrap;html=1;labelBackgroundColor=none;" vertex="1" parent="FiyNu5t_w4gmNEyw63m8-24">
          <mxGeometry x="120" y="33" width="280" height="257" as="geometry" />
        </mxCell>
        <mxCell id="FiyNu5t_w4gmNEyw63m8-45" style="edgeStyle=orthogonalEdgeStyle;shape=connector;rounded=0;orthogonalLoop=1;jettySize=auto;html=1;strokeColor=default;align=center;verticalAlign=middle;fontFamily=Helvetica;fontSize=11;fontColor=default;labelBackgroundColor=none;startArrow=none;startFill=0;endArrow=classic;" edge="1" parent="FiyNu5t_w4gmNEyw63m8-26" source="FiyNu5t_w4gmNEyw63m8-30" target="FiyNu5t_w4gmNEyw63m8-38">
          <mxGeometry relative="1" as="geometry" />
        </mxCell>
        <mxCell id="FiyNu5t_w4gmNEyw63m8-30" value="Event scheduler" style="rounded=0;whiteSpace=wrap;html=1;labelBackgroundColor=none;fillColor=#d5e8d4;strokeColor=#82b366;" vertex="1" parent="FiyNu5t_w4gmNEyw63m8-26">
          <mxGeometry x="160" y="80" width="110" height="30" as="geometry" />
        </mxCell>
        <mxCell id="FiyNu5t_w4gmNEyw63m8-41" style="edgeStyle=orthogonalEdgeStyle;shape=connector;rounded=0;orthogonalLoop=1;jettySize=auto;html=1;strokeColor=default;align=center;verticalAlign=middle;fontFamily=Helvetica;fontSize=11;fontColor=default;labelBackgroundColor=none;startArrow=classic;startFill=1;endArrow=classic;entryX=0;entryY=0.5;entryDx=0;entryDy=0;exitX=1;exitY=0.75;exitDx=0;exitDy=0;" edge="1" parent="FiyNu5t_w4gmNEyw63m8-26" source="FiyNu5t_w4gmNEyw63m8-31" target="FiyNu5t_w4gmNEyw63m8-30">
          <mxGeometry relative="1" as="geometry" />
        </mxCell>
        <mxCell id="FiyNu5t_w4gmNEyw63m8-42" style="edgeStyle=orthogonalEdgeStyle;shape=connector;rounded=0;orthogonalLoop=1;jettySize=auto;html=1;entryX=0;entryY=0.5;entryDx=0;entryDy=0;strokeColor=default;align=center;verticalAlign=middle;fontFamily=Helvetica;fontSize=11;fontColor=default;labelBackgroundColor=none;startArrow=none;startFill=0;endArrow=classic;" edge="1" parent="FiyNu5t_w4gmNEyw63m8-26" source="FiyNu5t_w4gmNEyw63m8-31" target="FiyNu5t_w4gmNEyw63m8-32">
          <mxGeometry relative="1" as="geometry" />
        </mxCell>
        <mxCell id="FiyNu5t_w4gmNEyw63m8-56" style="edgeStyle=orthogonalEdgeStyle;shape=connector;rounded=0;orthogonalLoop=1;jettySize=auto;html=1;strokeColor=default;align=center;verticalAlign=middle;fontFamily=Helvetica;fontSize=11;fontColor=default;labelBackgroundColor=none;startArrow=classic;startFill=1;endArrow=classic;" edge="1" parent="FiyNu5t_w4gmNEyw63m8-26" source="FiyNu5t_w4gmNEyw63m8-31" target="FiyNu5t_w4gmNEyw63m8-34">
          <mxGeometry relative="1" as="geometry" />
        </mxCell>
        <mxCell id="FiyNu5t_w4gmNEyw63m8-31" value="UART parser" style="rounded=0;whiteSpace=wrap;html=1;labelBackgroundColor=none;fillColor=#d5e8d4;strokeColor=#82b366;" vertex="1" parent="FiyNu5t_w4gmNEyw63m8-26">
          <mxGeometry x="20" y="30" width="90" height="30" as="geometry" />
        </mxCell>
        <mxCell id="FiyNu5t_w4gmNEyw63m8-43" style="edgeStyle=orthogonalEdgeStyle;shape=connector;rounded=0;orthogonalLoop=1;jettySize=auto;html=1;strokeColor=default;align=center;verticalAlign=middle;fontFamily=Helvetica;fontSize=11;fontColor=default;labelBackgroundColor=none;startArrow=none;startFill=0;endArrow=classic;" edge="1" parent="FiyNu5t_w4gmNEyw63m8-26" source="FiyNu5t_w4gmNEyw63m8-32" target="FiyNu5t_w4gmNEyw63m8-30">
          <mxGeometry relative="1" as="geometry" />
        </mxCell>
        <mxCell id="FiyNu5t_w4gmNEyw63m8-32" value="pTIRF extension" style="rounded=0;whiteSpace=wrap;html=1;labelBackgroundColor=none;fillColor=#d5e8d4;strokeColor=#82b366;" vertex="1" parent="FiyNu5t_w4gmNEyw63m8-26">
          <mxGeometry x="160" y="30" width="110" height="30" as="geometry" />
        </mxCell>
        <mxCell id="FiyNu5t_w4gmNEyw63m8-34" value="Properties" style="rounded=0;whiteSpace=wrap;html=1;labelBackgroundColor=none;fillColor=#d5e8d4;strokeColor=#82b366;" vertex="1" parent="FiyNu5t_w4gmNEyw63m8-26">
          <mxGeometry x="25" y="102" width="80" height="30" as="geometry" />
        </mxCell>
        <mxCell id="FiyNu5t_w4gmNEyw63m8-38" value="Event queue" style="rounded=0;whiteSpace=wrap;html=1;labelBackgroundColor=none;fillColor=#d5e8d4;strokeColor=#82b366;" vertex="1" parent="FiyNu5t_w4gmNEyw63m8-26">
          <mxGeometry x="170" y="132" width="90" height="30" as="geometry" />
        </mxCell>
        <mxCell id="FiyNu5t_w4gmNEyw63m8-48" value="Interlock" style="rounded=0;whiteSpace=wrap;html=1;labelBackgroundColor=none;fillColor=#d5e8d4;strokeColor=#82b366;" vertex="1" parent="FiyNu5t_w4gmNEyw63m8-26">
          <mxGeometry x="80" y="200" width="70" height="30" as="geometry" />
        </mxCell>
        <mxCell id="FiyNu5t_w4gmNEyw63m8-54" style="edgeStyle=orthogonalEdgeStyle;shape=connector;rounded=0;orthogonalLoop=1;jettySize=auto;html=1;entryX=0.5;entryY=0;entryDx=0;entryDy=0;strokeColor=default;align=center;verticalAlign=middle;fontFamily=Helvetica;fontSize=11;fontColor=default;labelBackgroundColor=none;startArrow=none;startFill=0;endArrow=classic;exitX=0.25;exitY=1;exitDx=0;exitDy=0;" edge="1" parent="FiyNu5t_w4gmNEyw63m8-26" source="FiyNu5t_w4gmNEyw63m8-38" target="FiyNu5t_w4gmNEyw63m8-48">
          <mxGeometry relative="1" as="geometry">
            <Array as="points">
              <mxPoint x="192" y="180" />
              <mxPoint x="115" y="180" />
            </Array>
          </mxGeometry>
        </mxCell>
        <mxCell id="FiyNu5t_w4gmNEyw63m8-72" value="Interlock timer" style="rounded=0;whiteSpace=wrap;html=1;labelBackgroundColor=none;fillColor=#fff2cc;strokeColor=#d6b656;" vertex="1" parent="FiyNu5t_w4gmNEyw63m8-24">
          <mxGeometry x="10" y="225" width="90" height="30" as="geometry" />
        </mxCell>
        <mxCell id="FiyNu5t_w4gmNEyw63m8-73" style="edgeStyle=orthogonalEdgeStyle;shape=connector;rounded=0;orthogonalLoop=1;jettySize=auto;html=1;exitX=1;exitY=0.5;exitDx=0;exitDy=0;entryX=0;entryY=0.25;entryDx=0;entryDy=0;strokeColor=default;align=center;verticalAlign=middle;fontFamily=Helvetica;fontSize=11;fontColor=default;labelBackgroundColor=none;startArrow=none;startFill=0;endArrow=classic;" edge="1" parent="FiyNu5t_w4gmNEyw63m8-24" source="FiyNu5t_w4gmNEyw63m8-72" target="FiyNu5t_w4gmNEyw63m8-48">
          <mxGeometry relative="1" as="geometry" />
        </mxCell>
        <mxCell id="FiyNu5t_w4gmNEyw63m8-28" value="System timer" style="rounded=0;whiteSpace=wrap;html=1;labelBackgroundColor=none;fillColor=#fff2cc;strokeColor=#d6b656;" vertex="1" parent="FiyNu5t_w4gmNEyw63m8-24">
          <mxGeometry x="10" y="165" width="90" height="30" as="geometry" />
        </mxCell>
        <mxCell id="FiyNu5t_w4gmNEyw63m8-46" style="edgeStyle=orthogonalEdgeStyle;shape=connector;rounded=0;orthogonalLoop=1;jettySize=auto;html=1;strokeColor=default;align=center;verticalAlign=middle;fontFamily=Helvetica;fontSize=11;fontColor=default;labelBackgroundColor=none;startArrow=none;startFill=0;endArrow=classic;" edge="1" parent="FiyNu5t_w4gmNEyw63m8-24" source="FiyNu5t_w4gmNEyw63m8-28" target="FiyNu5t_w4gmNEyw63m8-38">
          <mxGeometry relative="1" as="geometry" />
        </mxCell>
        <mxCell id="FiyNu5t_w4gmNEyw63m8-57" value="interlock in" style="rounded=0;whiteSpace=wrap;html=1;labelBackgroundColor=none;fillColor=#fff2cc;strokeColor=#d6b656;" vertex="1" parent="FiyNu5t_w4gmNEyw63m8-24">
          <mxGeometry x="150" y="303" width="70" height="30" as="geometry" />
        </mxCell>
        <mxCell id="FiyNu5t_w4gmNEyw63m8-58" value="interlock out" style="rounded=0;whiteSpace=wrap;html=1;labelBackgroundColor=none;fillColor=#fff2cc;strokeColor=#d6b656;" vertex="1" parent="FiyNu5t_w4gmNEyw63m8-24">
          <mxGeometry x="70" y="303" width="70" height="30" as="geometry" />
        </mxCell>
        <mxCell id="FiyNu5t_w4gmNEyw63m8-49" value="laser pins" style="rounded=0;whiteSpace=wrap;html=1;labelBackgroundColor=none;fillColor=#fff2cc;strokeColor=#d6b656;" vertex="1" parent="FiyNu5t_w4gmNEyw63m8-24">
          <mxGeometry x="230" y="303" width="70" height="30" as="geometry" />
        </mxCell>
        <mxCell id="FiyNu5t_w4gmNEyw63m8-29" value="TTL pins" style="rounded=0;whiteSpace=wrap;html=1;labelBackgroundColor=none;fillColor=#fff2cc;strokeColor=#d6b656;" vertex="1" parent="FiyNu5t_w4gmNEyw63m8-24">
          <mxGeometry x="328" y="303" width="60" height="30" as="geometry" />
        </mxCell>
        <mxCell id="FiyNu5t_w4gmNEyw63m8-60" style="edgeStyle=orthogonalEdgeStyle;shape=connector;rounded=0;orthogonalLoop=1;jettySize=auto;html=1;strokeColor=default;align=center;verticalAlign=middle;fontFamily=Helvetica;fontSize=11;fontColor=default;labelBackgroundColor=none;startArrow=none;startFill=0;endArrow=classic;entryX=0;entryY=0.75;entryDx=0;entryDy=0;exitX=0.5;exitY=0;exitDx=0;exitDy=0;" edge="1" parent="FiyNu5t_w4gmNEyw63m8-24" source="FiyNu5t_w4gmNEyw63m8-57" target="FiyNu5t_w4gmNEyw63m8-48">
          <mxGeometry relative="1" as="geometry" />
        </mxCell>
        <mxCell id="FiyNu5t_w4gmNEyw63m8-59" style="edgeStyle=orthogonalEdgeStyle;shape=connector;rounded=0;orthogonalLoop=1;jettySize=auto;html=1;strokeColor=default;align=center;verticalAlign=middle;fontFamily=Helvetica;fontSize=11;fontColor=default;labelBackgroundColor=none;startArrow=none;startFill=0;endArrow=classic;" edge="1" parent="FiyNu5t_w4gmNEyw63m8-24" source="FiyNu5t_w4gmNEyw63m8-48" target="FiyNu5t_w4gmNEyw63m8-58">
          <mxGeometry relative="1" as="geometry" />
        </mxCell>
        <mxCell id="FiyNu5t_w4gmNEyw63m8-50" style="edgeStyle=orthogonalEdgeStyle;shape=connector;rounded=0;orthogonalLoop=1;jettySize=auto;html=1;strokeColor=default;align=center;verticalAlign=middle;fontFamily=Helvetica;fontSize=11;fontColor=default;labelBackgroundColor=none;startArrow=none;startFill=0;endArrow=classic;entryX=0.5;entryY=0;entryDx=0;entryDy=0;" edge="1" parent="FiyNu5t_w4gmNEyw63m8-24" source="FiyNu5t_w4gmNEyw63m8-48" target="FiyNu5t_w4gmNEyw63m8-49">
          <mxGeometry relative="1" as="geometry" />
        </mxCell>
        <mxCell id="FiyNu5t_w4gmNEyw63m8-47" style="edgeStyle=orthogonalEdgeStyle;shape=connector;rounded=0;orthogonalLoop=1;jettySize=auto;html=1;strokeColor=default;align=center;verticalAlign=middle;fontFamily=Helvetica;fontSize=11;fontColor=default;labelBackgroundColor=none;startArrow=none;startFill=0;endArrow=classic;exitX=0.75;exitY=1;exitDx=0;exitDy=0;entryX=0.5;entryY=0;entryDx=0;entryDy=0;" edge="1" parent="FiyNu5t_w4gmNEyw63m8-24" source="FiyNu5t_w4gmNEyw63m8-38" target="FiyNu5t_w4gmNEyw63m8-29">
          <mxGeometry relative="1" as="geometry" />
        </mxCell>
        <mxCell id="FiyNu5t_w4gmNEyw63m8-27" value="UART" style="rounded=0;whiteSpace=wrap;html=1;labelBackgroundColor=none;fillColor=#fff2cc;strokeColor=#d6b656;" vertex="1" parent="FiyNu5t_w4gmNEyw63m8-24">
          <mxGeometry x="25" y="62.5" width="60" height="30" as="geometry" />
        </mxCell>
        <mxCell id="FiyNu5t_w4gmNEyw63m8-35" style="edgeStyle=orthogonalEdgeStyle;rounded=0;orthogonalLoop=1;jettySize=auto;html=1;startArrow=classic;startFill=1;labelBackgroundColor=none;" edge="1" parent="FiyNu5t_w4gmNEyw63m8-24" source="FiyNu5t_w4gmNEyw63m8-31" target="FiyNu5t_w4gmNEyw63m8-27">
          <mxGeometry relative="1" as="geometry" />
        </mxCell>
        <mxCell id="FiyNu5t_w4gmNEyw63m8-64" style="edgeStyle=orthogonalEdgeStyle;shape=connector;rounded=0;orthogonalLoop=1;jettySize=auto;html=1;exitX=0.75;exitY=0;exitDx=0;exitDy=0;strokeColor=default;align=center;verticalAlign=middle;fontFamily=Helvetica;fontSize=11;fontColor=default;labelBackgroundColor=none;startArrow=none;startFill=0;endArrow=classic;" edge="1" parent="1" source="FiyNu5t_w4gmNEyw63m8-62" target="FiyNu5t_w4gmNEyw63m8-57">
          <mxGeometry relative="1" as="geometry">
            <Array as="points">
              <mxPoint x="505" y="520" />
              <mxPoint x="535" y="520" />
            </Array>
          </mxGeometry>
        </mxCell>
        <mxCell id="FiyNu5t_w4gmNEyw63m8-62" value="Interlock circuit" style="rounded=0;whiteSpace=wrap;html=1;fontFamily=Helvetica;fontSize=11;labelBackgroundColor=none;fillColor=#e1d5e7;strokeColor=#9673a6;" vertex="1" parent="1">
          <mxGeometry x="430" y="540" width="100" height="30" as="geometry" />
        </mxCell>
        <mxCell id="FiyNu5t_w4gmNEyw63m8-63" style="edgeStyle=orthogonalEdgeStyle;shape=connector;rounded=0;orthogonalLoop=1;jettySize=auto;html=1;entryX=0.25;entryY=0;entryDx=0;entryDy=0;strokeColor=default;align=center;verticalAlign=middle;fontFamily=Helvetica;fontSize=11;fontColor=default;labelBackgroundColor=none;startArrow=none;startFill=0;endArrow=classic;" edge="1" parent="1" source="FiyNu5t_w4gmNEyw63m8-58" target="FiyNu5t_w4gmNEyw63m8-62">
          <mxGeometry relative="1" as="geometry" />
        </mxCell>
        <mxCell id="FiyNu5t_w4gmNEyw63m8-65" value="Laser shutter" style="rounded=0;whiteSpace=wrap;html=1;fontFamily=Helvetica;fontSize=11;labelBackgroundColor=none;fillColor=#e1d5e7;strokeColor=#9673a6;" vertex="1" parent="1">
          <mxGeometry x="540" y="540" width="65" height="30" as="geometry" />
        </mxCell>
        <mxCell id="FiyNu5t_w4gmNEyw63m8-67" style="edgeStyle=orthogonalEdgeStyle;shape=connector;rounded=0;orthogonalLoop=1;jettySize=auto;html=1;entryX=0.5;entryY=0;entryDx=0;entryDy=0;strokeColor=default;align=center;verticalAlign=middle;fontFamily=Helvetica;fontSize=11;fontColor=default;labelBackgroundColor=none;startArrow=none;startFill=0;endArrow=classic;" edge="1" parent="1" source="FiyNu5t_w4gmNEyw63m8-49" target="FiyNu5t_w4gmNEyw63m8-65">
          <mxGeometry relative="1" as="geometry">
            <Array as="points">
              <mxPoint x="615" y="520" />
              <mxPoint x="572" y="520" />
            </Array>
          </mxGeometry>
        </mxCell>
        <mxCell id="FiyNu5t_w4gmNEyw63m8-68" value="Camera" style="rounded=0;whiteSpace=wrap;html=1;fontFamily=Helvetica;fontSize=11;labelBackgroundColor=none;fillColor=#e1d5e7;strokeColor=#9673a6;" vertex="1" parent="1">
          <mxGeometry x="618" y="540" width="60" height="30" as="geometry" />
        </mxCell>
        <mxCell id="FiyNu5t_w4gmNEyw63m8-69" style="edgeStyle=orthogonalEdgeStyle;shape=connector;rounded=0;orthogonalLoop=1;jettySize=auto;html=1;entryX=0.5;entryY=0;entryDx=0;entryDy=0;strokeColor=default;align=center;verticalAlign=middle;fontFamily=Helvetica;fontSize=11;fontColor=default;labelBackgroundColor=none;startArrow=none;startFill=0;endArrow=classic;exitX=0.25;exitY=1;exitDx=0;exitDy=0;" edge="1" parent="1" source="FiyNu5t_w4gmNEyw63m8-29" target="FiyNu5t_w4gmNEyw63m8-68">
          <mxGeometry relative="1" as="geometry">
            <Array as="points">
              <mxPoint x="693" y="520" />
              <mxPoint x="648" y="520" />
            </Array>
          </mxGeometry>
        </mxCell>
        <mxCell id="FiyNu5t_w4gmNEyw63m8-70" value="Other hardware" style="rounded=0;whiteSpace=wrap;html=1;fontFamily=Helvetica;fontSize=11;labelBackgroundColor=none;fillColor=#e1d5e7;strokeColor=#9673a6;" vertex="1" parent="1">
          <mxGeometry x="690" y="540" width="66" height="30" as="geometry" />
        </mxCell>
        <mxCell id="FiyNu5t_w4gmNEyw63m8-71" style="edgeStyle=orthogonalEdgeStyle;shape=connector;rounded=0;orthogonalLoop=1;jettySize=auto;html=1;exitX=0.75;exitY=1;exitDx=0;exitDy=0;entryX=0.5;entryY=0;entryDx=0;entryDy=0;strokeColor=default;align=center;verticalAlign=middle;fontFamily=Helvetica;fontSize=11;fontColor=default;labelBackgroundColor=none;startArrow=none;startFill=0;endArrow=classic;" edge="1" parent="1" source="FiyNu5t_w4gmNEyw63m8-29" target="FiyNu5t_w4gmNEyw63m8-70">
          <mxGeometry relative="1" as="geometry" />
        </mxCell>
        <mxCell id="FiyNu5t_w4gmNEyw63m8-103" style="edgeStyle=orthogonalEdgeStyle;shape=connector;rounded=0;orthogonalLoop=1;jettySize=auto;html=1;entryX=0.5;entryY=0;entryDx=0;entryDy=0;strokeColor=default;align=center;verticalAlign=middle;fontFamily=Helvetica;fontSize=11;fontColor=default;labelBackgroundColor=none;startArrow=classic;startFill=1;endArrow=classic;" edge="1" parent="1" source="FiyNu5t_w4gmNEyw63m8-100" target="FiyNu5t_w4gmNEyw63m8-101">
          <mxGeometry relative="1" as="geometry" />
        </mxCell>
        <mxCell id="FiyNu5t_w4gmNEyw63m8-100" value="SyncDevice Python driver" style="rounded=0;whiteSpace=wrap;html=1;fontFamily=Helvetica;fontSize=11;labelBackgroundColor=none;fillColor=#d5e8d4;strokeColor=#82b366;" vertex="1" parent="1">
          <mxGeometry x="165" y="157" width="80" height="35" as="geometry" />
        </mxCell>
        <mxCell id="FiyNu5t_w4gmNEyw63m8-102" style="edgeStyle=orthogonalEdgeStyle;shape=connector;rounded=0;orthogonalLoop=1;jettySize=auto;html=1;entryX=0;entryY=0.5;entryDx=0;entryDy=0;strokeColor=default;align=center;verticalAlign=middle;fontFamily=Helvetica;fontSize=11;fontColor=default;labelBackgroundColor=none;startArrow=classic;startFill=1;endArrow=classic;" edge="1" parent="1" source="FiyNu5t_w4gmNEyw63m8-101" target="FiyNu5t_w4gmNEyw63m8-27">
          <mxGeometry relative="1" as="geometry" />
        </mxCell>
        <mxCell id="FiyNu5t_w4gmNEyw63m8-104" value="Communication&lt;br&gt;protocol" style="edgeLabel;html=1;align=center;verticalAlign=middle;resizable=0;points=[];fontFamily=Helvetica;fontSize=11;fontColor=default;labelBackgroundColor=default;" vertex="1" connectable="0" parent="FiyNu5t_w4gmNEyw63m8-102">
          <mxGeometry x="-0.1564" y="1" relative="1" as="geometry">
            <mxPoint y="-16" as="offset" />
          </mxGeometry>
        </mxCell>
        <mxCell id="FiyNu5t_w4gmNEyw63m8-101" value="pyserial" style="rounded=0;whiteSpace=wrap;html=1;fontFamily=Helvetica;fontSize=11;labelBackgroundColor=none;fillColor=#d5e8d4;strokeColor=#82b366;" vertex="1" parent="1">
          <mxGeometry x="165" y="225" width="80" height="19" as="geometry" />
        </mxCell>
      </root>
    </mxGraphModel>
  </diagram>
</mxfile>
